<svg width="765" height="765" viewBox="0 0 765 765" fill="none" xmlns="http://www.w3.org/2000/svg">
<path d="M496.625 258.957C502.248 256.291 554.499 209.346 552.571 198.519C550.343 186.024 517.67 118.167 522.627 114.097C527.582 110.029 540.581 105.656 540.581 105.656C540.581 105.656 593.822 202.557 582.361 218.319C570.899 234.079 516.242 285.806 516.242 285.806L496.625 258.957Z" fill="#162250"/>
<path d="M556.796 98.1755C554.399 89.5819 545.01 89.6352 545.01 89.6352C545.01 89.6352 552.009 81.7707 549.184 66.5269C546.359 51.2832 520.083 40.0838 507.965 42.1064C495.847 44.1291 485.373 60.2322 485.373 60.2322C485.373 60.2322 459.036 24.2336 448.524 33.2928C438.01 42.3493 472.146 73.6105 472.146 73.6105C472.146 73.6105 466.716 82.2487 472.674 98.2575C478.632 114.266 505.233 113.335 505.233 113.335C505.233 113.335 493.959 126.311 509.63 130.134C521.388 133.001 559.193 106.769 556.796 98.1755Z" fill="white"/>
<path d="M485.376 60.2308C485.376 60.2308 493.99 85.6249 503.097 86.5836C512.204 87.5424 514.523 80.4516 514.523 80.4516C514.523 80.4516 520.619 85.8103 523.98 83.7699C527.34 81.7294 528.65 74.9778 528.65 74.9778C528.65 74.9778 535.419 79.6594 539.106 75.93C542.793 72.2006 537.662 59.0838 537.662 59.0838" stroke="#162250" stroke-width="4.27289" stroke-miterlimit="10" stroke-linejoin="round"/>
<path d="M486.597 89.7092C486.597 89.7092 507.757 79.4135 499.976 70.7577C492.193 62.0993 463.452 69.1054 470.779 94.1818C478.108 119.257 505.235 113.334 505.235 113.334C505.235 113.334 495.735 120.893 508.723 128.353C521.711 135.814 535.561 117.703 535.561 117.703" fill="white"/>
<path d="M486.597 89.7092C486.597 89.7092 507.757 79.4135 499.976 70.7577C492.193 62.0993 463.452 69.1054 470.779 94.1818C478.108 119.257 505.235 113.334 505.235 113.334C505.235 113.334 495.735 120.893 508.723 128.353C521.711 135.814 535.561 117.703 535.561 117.703" stroke="#162250" stroke-width="4.27289" stroke-miterlimit="10" stroke-linejoin="round"/>
<path d="M456.443 594.511C455.849 606.799 450.18 610.676 450.18 610.676C450.18 610.676 490.002 626.367 481.257 641.405C472.513 656.446 411.08 659.132 402.289 645.132C393.505 631.145 405.819 612.89 405.819 612.89C405.819 612.89 392.998 598.587 399.616 591.533C406.231 584.481 457.112 580.646 456.443 594.511Z" fill="white"/>
<path d="M417.757 617.926C417.757 617.926 393.356 606.487 396.837 595.634C400.319 584.781 420.775 584.864 420.775 584.864" stroke="#162250" stroke-width="5.69709" stroke-miterlimit="10"/>
<path d="M380.199 429.865C380.199 429.865 418.131 492.24 428.975 521.184C439.818 550.127 441.078 602.904 441.078 602.904L417.377 602.129C417.377 602.129 413.673 543.141 409.068 533.755C404.463 524.369 356.036 443.27 356.036 443.27L380.199 429.865Z" fill="#162250"/>
<path d="M550.428 558.742C550.994 571.03 545.715 575.421 545.715 575.421C545.715 575.421 586.836 587.295 579.547 603.092C572.255 618.889 511.349 627.343 501.281 614.233C491.22 601.134 501.762 581.804 501.762 581.804C501.762 581.804 487.65 568.769 493.577 561.124C499.496 553.477 549.789 544.874 550.428 558.742Z" fill="white"/>
<path d="M536.832 582.187C536.832 582.187 559.136 566.15 550.285 555.966C541.432 545.783 497.926 553.144 493.571 561.12" stroke="#162250" stroke-width="5.69709" stroke-miterlimit="10"/>
<path d="M459.032 401.994C459.032 401.994 502.664 460.524 516.18 488.317C529.697 516.113 535.918 568.54 535.918 568.54L512.252 569.998C512.252 569.998 503.014 511.618 497.547 502.707C492.08 493.796 436.237 417.614 436.237 417.614L459.032 401.994Z" fill="#162250"/>
<path d="M224.458 193.155C337.717 78.8487 459.032 153.35 505.015 216.624C537.92 261.9 578.478 372.747 431.293 474.356C273.804 583.077 62.6268 356.483 224.458 193.155Z" fill="#EAF3CF"/>
<path d="M224.458 193.155C337.717 78.8487 459.032 153.35 505.015 216.624C537.92 261.9 578.478 372.747 431.293 474.356C273.804 583.077 62.6268 356.483 224.458 193.155Z" fill="#F0F3BE"/>
<path d="M257.887 182.664C257.887 182.664 247.984 179.65 241.284 177.596C235.663 182.342 230.051 187.511 224.458 193.155C220.244 197.409 216.296 201.706 212.581 206.039C214.565 207.855 217.109 209.426 219.327 212.176C223.896 217.844 231.193 218.2 235.75 219.983C240.305 221.768 236.158 228.227 236.751 234.763C237.344 241.299 242.843 242.321 250.837 252.244C258.831 262.165 272.534 251.126 272.534 251.126C274.044 249.131 268.897 240.81 262.227 230.6C255.558 220.39 265.296 214.1 267.066 205.663C268.836 197.218 257.887 182.664 257.887 182.664Z" fill="#9BCA69"/>
<path d="M290.991 146.376C289.114 150.225 286.729 156.813 291.355 158.511C297.996 160.95 306.894 158.456 312.289 156.448C317.682 154.439 325.123 141.43 329.601 147.954C334.077 154.475 340.234 153.412 344.421 158.609C348.607 163.805 345.119 168.176 345.119 168.176C345.119 168.176 327.584 166.722 322.951 169.677C318.32 172.631 305.639 178.172 313.62 184.208C321.601 190.244 333.241 186.317 337.049 191.044C340.856 195.768 346.081 199.352 350.254 200.661C354.428 201.973 361.53 200.148 364.376 201.748C367.225 203.347 377.751 205.774 374.691 198.111C371.632 190.448 358.651 190.775 360.146 184.897C361.64 179.016 358.858 168.792 367.401 173.594C375.948 178.397 385.423 178.552 388.588 189.25C391.753 199.945 387.776 200.813 390.271 209.711C392.766 218.61 387.844 220.237 392.701 227.233C397.559 234.23 398.778 230.908 401.838 238.574C404.898 246.237 394.111 250.256 399.729 258.194C405.349 266.135 414.09 273.116 420.048 269.871C426.007 266.629 438.119 262.322 434.772 253.331C431.424 244.34 418.401 233.016 422.927 227.029C427.453 221.043 441.394 223.837 442.218 216.159C443.042 208.481 439.68 195.606 439.68 195.606C439.68 195.606 421.602 175.108 435.727 176.194C449.85 177.281 459.156 183.03 459.199 194.684C459.24 206.34 450.552 214.899 460.502 214.673C470.45 214.448 484.887 196.582 485.215 209.563C485.545 222.543 482.056 226.914 468.051 232.744C454.046 238.574 447.236 241.726 447.236 241.726C447.236 241.726 448.115 249.588 445.599 260.967C443.081 272.348 438.344 272.27 439.619 284.488C440.895 296.708 433.611 300.24 443.708 314.701C453.804 329.163 452.717 343.285 470.908 342.652C489.1 342.018 472.729 321.703 512.827 326.015C522.04 327.007 529.259 328.354 535.096 329.713C540.183 289.605 527.915 254.454 513.833 230.207C505.489 225.698 498.326 220.849 502.31 219.166C503.577 218.631 504.853 218.315 506.095 218.134C505.735 217.625 505.377 217.115 505.018 216.623C467.997 165.683 382.15 107.492 290.991 146.376Z" fill="#02C49A"/>
<path d="M267.863 484.142C267.212 481.209 264.135 477.528 262.646 474.31C259.494 467.5 260.729 468.064 254.18 464.769C247.628 461.476 250.187 461.751 249.477 448.298C248.767 434.845 246.313 437.603 244.854 427.087C243.396 416.573 248.541 424.895 258.096 420.312C267.649 415.731 263.568 413.566 268.646 402.46C273.721 391.355 269.09 394.309 267.879 373.466C266.668 352.622 279.373 354.851 277.888 336.569C276.402 318.285 276.98 320.937 268.971 307.13C260.961 293.323 262.039 303.364 252.181 302.738C242.325 302.107 241.999 317.178 241.999 317.178L227.602 318.65C227.602 318.65 232.391 306.22 238.229 296.059C244.067 285.899 239.118 279.758 228.262 264.351C217.403 248.945 223.01 252.998 215.841 235.399C208.671 217.801 210.314 226.606 199.143 230.151C187.976 233.698 198.304 233.946 195.392 240.967C193.595 245.294 189.377 247.721 183.855 249.179C137.64 343.532 188.931 443.607 267.863 484.142Z" fill="#02C49A"/>
<path d="M197.28 420.999C197.28 420.999 297.434 564.456 431.293 474.356" stroke="#162250" stroke-width="5.69709" stroke-miterlimit="10"/>
<path d="M512.266 227.298C536.564 266.639 547.142 321.958 512.281 396.136" stroke="#162250" stroke-width="5.69709" stroke-miterlimit="10"/>
<path d="M416.536 148.165C416.536 148.165 466.189 167.302 501.102 211.41" stroke="#162250" stroke-width="5.69709" stroke-miterlimit="10"/>
<path d="M351.984 226.389C381.136 191.474 456.957 267.931 426.095 302.196C395.23 336.461 327.787 255.37 351.984 226.389Z" fill="white"/>
<path d="M393.782 249.249C393.698 245.862 377.716 249.067 368.994 251.074C364.675 239.766 364.875 229.521 373.079 224.777C399.182 209.683 447.482 273.678 427.868 292.563C415.854 304.131 394.041 289.238 379.839 270.205C384.998 263.891 393.864 252.554 393.782 249.249Z" fill="#162250"/>
<path d="M351.984 226.389C381.136 191.474 456.957 267.931 426.095 302.196C395.23 336.461 327.787 255.37 351.984 226.389Z" stroke="#162250" stroke-width="5.69709" stroke-miterlimit="10" stroke-linecap="round" stroke-linejoin="round"/>
<path d="M333.966 218.685C333.966 218.685 325.846 190.578 351.519 205.099" stroke="#162250" stroke-width="8.54579" stroke-miterlimit="10" stroke-linecap="round" stroke-linejoin="round"/>
<path d="M418.949 314.295C418.949 314.295 390.691 261.856 437.974 255.508L436.058 294.762L418.949 314.295Z" fill="#EAF3CF"/>
<path d="M420.693 261.675C419.173 264.517 418.086 267.425 420.784 271.236C425.107 277.342 431.273 282.863 436.606 283.619L437.977 255.514C430.429 256.523 424.814 258.714 420.693 261.675Z" fill="#9BCA69"/>
<path d="M418.949 314.295C418.949 314.295 390.691 261.856 437.974 255.508" stroke="#162250" stroke-width="5.69709" stroke-miterlimit="10" stroke-linecap="round" stroke-linejoin="round"/>
<path d="M281.481 265.758C281.481 265.758 254.388 252.94 261.939 282.593" stroke="#162250" stroke-width="8.54579" stroke-miterlimit="10" stroke-linecap="round" stroke-linejoin="round"/>
<path d="M278.554 285.561C238.239 306.623 296.832 396.967 336.874 374.092C376.916 351.217 312.018 268.077 278.554 285.561Z" fill="white"/>
<path d="M313.954 318.658C314.045 315.271 297.919 317.653 289.104 319.206C285.373 307.693 286.098 297.47 294.535 293.156C321.38 279.424 366.324 345.819 345.766 363.67C333.173 374.604 312.153 358.609 298.949 338.871C304.427 332.831 313.864 321.965 313.954 318.658Z" fill="#162250"/>
<path d="M278.554 285.561C238.239 306.623 296.832 396.967 336.874 374.092C376.916 351.217 312.018 268.077 278.554 285.561Z" stroke="#162250" stroke-width="5.69709" stroke-miterlimit="10" stroke-linecap="round" stroke-linejoin="round"/>
<path d="M346.966 374.842C346.966 374.842 303.594 334.323 285.974 379.165L324.065 386.864L346.966 374.842Z" fill="#EAF3CF"/>
<path d="M346.966 374.842C346.966 374.842 303.594 334.323 285.974 379.165" stroke="#162250" stroke-width="5.69709" stroke-miterlimit="10" stroke-linecap="round" stroke-linejoin="round"/>
<path d="M360.037 341.287C363.064 330.824 374.413 341.756 382.922 334.567C387.405 330.782 381.935 320.908 391.014 318.556C402.55 315.57 408.312 337.822 389.428 350.018C370.549 362.219 356.689 352.862 360.037 341.287Z" fill="#162250"/>
<path d="M373.383 355.725C377.971 355.575 383.444 353.886 389.432 350.02C397.072 345.086 400.625 338.517 401.449 332.628C395.763 332.238 389.709 333.806 384.45 337.518C377.97 342.088 374.132 348.868 373.383 355.725Z" fill="#FF8D7B"/>
<path d="M360.037 341.287C363.064 330.824 374.413 341.756 382.922 334.567C387.405 330.782 381.935 320.908 391.014 318.556C402.55 315.57 408.312 337.822 389.428 350.018C370.549 362.219 356.689 352.862 360.037 341.287Z" stroke="#162250" stroke-width="5.69709" stroke-miterlimit="10" stroke-linecap="round" stroke-linejoin="round"/>
<path d="M355.219 333.934C355.219 333.934 381.09 352.019 360.276 370.902Z" fill="#EAF3CF"/>
<path d="M354.336 333.958C354.336 333.958 381.953 351.112 361.139 369.996" stroke="#162250" stroke-width="5.69709" stroke-miterlimit="10" stroke-linecap="round" stroke-linejoin="round"/>
<path d="M392.985 309.997C392.985 309.997 397.274 330.644 416.114 330.015" stroke="#162250" stroke-width="5.69709" stroke-miterlimit="10" stroke-linecap="round" stroke-linejoin="round"/>
<path d="M205.517 187.23C204.215 188.699 198.061 178.666 205.371 170.836C215.786 159.682 225.612 169.904 225.612 169.904L205.517 187.23Z" fill="#162250"/>
<path d="M163.633 333.189L377.088 131.949C377.088 131.949 332.88 119.126 292.037 132.299C226.893 153.31 133.696 222.936 163.633 333.189Z" fill="#028090"/>
<path d="M209.941 289.277C209.941 289.277 373.456 47.6443 424.058 80.4916C458.584 102.902 209.941 289.277 209.941 289.277Z" fill="#162250"/>
<path d="M238.181 585.345C238.181 585.345 249.373 579.195 242.362 567.453C235.352 555.714 209.169 554.091 198.595 563.057C188.022 572.022 201.213 581.666 201.213 581.666C201.213 581.666 190.021 587.816 186.009 599.766C181.997 611.716 183.105 640.25 189.664 643.236C196.225 646.22 202.335 640.45 202.335 640.45C202.335 640.45 215.888 661.82 231.305 654.74C246.72 647.662 225.511 608.212 233.015 608.774C240.517 609.338 239.359 631.119 250.551 624.968C261.743 618.818 251.512 602.333 251.512 602.333C251.512 602.333 252.95 588.74 238.181 585.345Z" fill="white"/>
<path d="M229.708 603.644C229.708 603.644 234.447 636.201 236.944 644.594C239.579 653.459 226.871 658.277 224.22 650.308C221.566 642.34 218.272 623.262 218.272 623.262" stroke="#162250" stroke-width="4.27289" stroke-miterlimit="10" stroke-linejoin="round"/>
<path d="M201.726 627.364C201.726 627.364 205.14 663.952 225.646 654.119" stroke="#162250" stroke-width="4.27289" stroke-miterlimit="10" stroke-linejoin="round"/>
<path d="M270.355 436.811C270.355 436.811 227.338 518.079 229.223 570.573C229.223 570.573 216.493 573.793 212.231 569.69C207.971 565.588 216.543 470.899 254.846 429.303L270.355 436.811Z" fill="#162250"/>
<path d="M235.327 586.204C235.327 586.204 247.926 581.156 245.196 568.741C242.464 556.323 212.848 551.499 199.664 560.277C186.477 569.056 204.684 583.11 204.684 583.11" stroke="#162250" stroke-width="5.69709" stroke-miterlimit="10"/>
</svg>
