<svg width="784" height="954" viewBox="0 0 784 954" fill="none" xmlns="http://www.w3.org/2000/svg">
<path d="M7.82094 909.4C6.21804 854.05 750.691 855.357 736.942 912.93C723.193 970.512 9.42385 964.749 7.82094 909.4Z" fill="#009B98"/>
<path d="M537.434 504.4C537.434 504.4 636.569 604.476 659.4 586.012C682.231 567.548 685.776 517.176 685.776 517.176L719.399 523.033C719.399 523.033 697.01 630.259 655.762 629.389C614.514 628.519 518.237 533.304 518.237 533.304L537.434 504.4Z" fill="#162250"/>
<path d="M775.66 496.456C785.25 476.647 789.02 447.588 768.605 431.268C748.19 414.952 738.272 408.865 738.272 408.865C738.272 408.865 740.66 393.291 723.573 394.029C706.486 394.767 698.679 432.17 694.608 437.919C690.537 443.668 686.067 418.341 674.564 410.2C663.062 402.058 641.74 395.595 640.894 410.632C640.053 425.669 660.463 441.985 660.463 441.985C660.463 441.985 649.327 462.334 652.18 483.017C653.492 492.512 660.679 500.484 668.068 506.36C661.863 508.315 654.972 512.856 653.219 523.414C649.853 543.664 707.097 563.651 727.178 554.066C747.259 544.482 732.937 518.248 732.937 518.248C732.937 518.248 766.071 516.269 775.66 496.456Z" fill="white"/>
<path d="M680.172 513.416C680.172 513.416 653.548 498.031 652.185 483.017C650.821 468.003 660.467 441.985 660.467 441.985" stroke="#162250" stroke-width="6.7073" stroke-miterlimit="10"/>
<path d="M700.107 516.485C700.107 516.485 761.756 530.309 775.66 496.456" stroke="#162250" stroke-width="6.7073" stroke-miterlimit="10"/>
<path d="M715.883 414.618C715.883 414.618 694.354 438.934 711.262 452.265C728.17 465.596 732.974 448.702 732.974 448.702C732.974 448.702 728.682 493.753 745.416 494.858C762.151 495.967 769.841 468.929 769.841 468.929" stroke="#162250" stroke-width="6.7073" stroke-miterlimit="10"/>
<path d="M87.2376 731.942C87.2376 731.942 103.398 720.313 90.3352 703.466C77.277 686.619 36.4519 689.044 21.7813 704.914C7.11072 720.783 29.3401 733.221 29.3401 733.221C29.3401 733.221 15.2663 745.4 9.22131 764.099C0.059823 792.448 28.3718 828.272 38.37 833.395C60.3736 844.672 42.154 823.98 42.154 823.98C42.154 823.98 67.1565 854.496 89.6771 840.634C112.198 826.772 71.9417 769.726 83.6556 769.18C95.3742 768.64 97.4659 810.569 113.627 798.945C129.787 787.315 110.844 763.737 110.844 763.737C110.844 763.737 110.731 734.41 87.2376 731.942Z" fill="white"/>
<path d="M17.4099 800.928C17.4099 800.928 27.6575 842.872 51.9455 836.709" stroke="#162250" stroke-width="8.94291" stroke-miterlimit="10"/>
<path d="M77.5777 761.852C77.5777 761.852 91.0452 811.335 96.4932 823.858C102.242 837.081 83.4818 846.929 77.8787 835.097C72.2709 823.266 63.5749 794.366 63.5749 794.366" stroke="#162250" stroke-width="8.94291" stroke-miterlimit="10"/>
<path d="M41.0027 804.252C41.0027 804.252 50.9256 859.813 80.8027 840.733" stroke="#162250" stroke-width="8.94291" stroke-miterlimit="10"/>
<path d="M109.025 496.023C109.025 496.023 57.7738 629.892 70.5876 710.771C70.5876 710.771 51.4986 718.151 44.1281 712.609C36.7622 707.062 32.1743 558.922 83.6084 487.327L109.025 496.023Z" fill="#162250"/>
<path d="M81.1077 729.08C81.1077 729.08 101.532 723.622 94.9651 704.923C88.3984 686.224 41.6603 684.339 22.9096 700.411C4.15883 716.482 34.9853 734.795 34.9853 734.795" stroke="#162250" stroke-width="8.94291" stroke-miterlimit="10"/>
<path d="M210.158 832.446C219.198 849.359 229.774 851.032 229.774 851.032C229.774 851.032 177.296 906.114 199.657 921.462C222.018 936.809 328.341 892.322 320.524 867.766C312.707 843.21 297.67 828.798 297.67 828.798C297.67 828.798 307.903 789.882 293.876 784.364C279.84 778.85 199.953 813.362 210.158 832.446Z" fill="white"/>
<path d="M237.888 852.992C237.888 852.992 209.82 845.824 208.03 825.522C206.239 805.215 288.65 774.76 298.206 783.72C307.763 792.679 292.833 838.66 292.833 838.66" stroke="#162250" stroke-width="8.94291" stroke-miterlimit="10"/>
<path d="M249.15 564.756C249.15 564.756 191.375 664.907 195.432 712.919C199.484 760.931 237.413 834.007 237.413 834.007L270.28 817.089C270.28 817.089 234.893 715.33 235.114 699.038C235.335 682.741 290.37 576.597 290.37 576.597L249.15 564.756Z" fill="#162250"/>
<path d="M464.706 815.872C481.741 824.685 491.4 820.074 491.4 820.074C491.4 820.074 479.367 895.195 506.489 895.171C533.612 895.148 596.013 798.245 575.659 782.446C555.305 766.642 534.75 763.286 534.75 763.286C534.75 763.286 521.132 725.418 506.442 728.821C491.753 732.224 445.485 805.93 464.706 815.872Z" fill="white"/>
<path d="M505.427 816.563C505.427 816.563 472.584 835.074 460.043 814.175C447.501 793.271 487.748 724.088 506.442 728.821C525.136 733.555 535.29 768.786 535.29 768.786" stroke="#162250" stroke-width="8.94291" stroke-miterlimit="10"/>
<path d="M345.155 573.207C345.155 573.207 354.298 688.466 384.842 725.728C415.387 762.995 488.044 801.718 488.044 801.718L505.54 769.152C505.54 769.152 418.724 705.356 409.675 691.804C400.627 678.252 385.829 559.609 385.829 559.609L345.155 573.207Z" fill="#162250"/>
<path d="M627.959 422.036C602.364 419.084 534.618 414.637 537.18 395.252C539.592 377.009 559.001 355.339 581.422 335.883C577.591 308.079 570.052 281.906 559.79 257.491C529.758 296.628 489.793 339.86 462.398 335.563C413.221 327.85 464.603 274.249 505.818 236.615C515.243 228.009 525.198 218.659 534.957 209.357C512.864 173.547 485.413 142.655 456.997 117.225C447.389 132.676 433.734 142.998 409.15 135.378C386.404 128.327 389.981 104.984 404.938 76.9169C364.151 49.8179 324.073 1.88576 304.279 1.10546C292.387 0.635402 273.655 47.1714 247.251 69.6968C257.315 93.2703 263.478 120.125 248.065 133.536C235.02 144.883 221.68 127.604 210.61 103.823C184.912 129.554 157.31 160.672 131.095 194.103C151.448 234.82 179.243 278.803 135.805 288.209C110.055 293.784 95.6286 276.397 87.5576 253.975C75.9377 271.344 65.1544 288.835 55.5651 306.091C86.2178 358.648 132.9 401.447 91.4168 423.94C66.4095 437.501 42.2437 411.441 22.9759 377.855C10.7073 414.708 -1.82443 453.976 5.68715 479.59C48.0914 624.228 235.039 638.179 235.039 638.179C429.786 674.097 607.666 578.552 627.959 422.036ZM220.989 229.823C197.792 238.881 153.413 169.994 190.289 166.967C227.161 163.935 244.187 220.765 220.989 229.823Z" fill="#02C49A"/>
<path d="M109.81 410.768C109.81 410.768 70.7764 462.771 22.9665 377.859C22.9665 377.859 -73.0999 543.185 172.653 626.221C418.401 709.262 615.328 556.736 627.959 422.036C627.959 422.036 553.844 421.255 537.18 395.252" stroke="#162250" stroke-width="8.94291" stroke-miterlimit="10"/>
<path d="M304.275 1.11487C304.275 1.11487 340.54 141.56 323.505 301.15" stroke="#162250" stroke-width="8.94291" stroke-miterlimit="10"/>
<path d="M296.128 567.346L287.413 645.503" stroke="#162250" stroke-width="8.94291" stroke-miterlimit="10" stroke-linecap="round" stroke-linejoin="round"/>
<path d="M274.726 62.9044C274.726 62.9044 310.54 126.823 327.387 148.432" stroke="#162250" stroke-width="6.7073" stroke-miterlimit="10" stroke-linecap="round" stroke-linejoin="round"/>
<path d="M331.716 266.601C331.716 266.601 462.055 188.03 478.836 158.454" stroke="#162250" stroke-width="6.7073" stroke-miterlimit="10" stroke-linecap="round" stroke-linejoin="round"/>
<path d="M23.131 454.338C23.131 454.338 179.012 597.477 291.893 618.709" stroke="#162250" stroke-width="6.7073" stroke-miterlimit="10" stroke-linecap="round" stroke-linejoin="round"/>
<path d="M401.638 339.216C467.132 335.385 461.623 490.604 395.124 491.99C328.624 493.377 347.276 342.398 401.638 339.216Z" fill="white"/>
<path d="M387.127 395.524C384.763 390.716 407.025 381.502 419.359 376.83C416.511 357.313 408.797 343.15 395.118 343.55C351.586 344.81 337.973 475.731 376.18 485.33C399.584 491.21 415.932 451.683 419.778 412.884C408.745 408.479 389.435 400.22 387.127 395.524Z" fill="#162250"/>
<path d="M401.638 339.216C467.132 335.385 461.623 490.604 395.124 491.99C328.624 493.377 347.276 342.398 401.638 339.216Z" stroke="#162250" stroke-width="8.94291" stroke-miterlimit="10" stroke-linecap="round" stroke-linejoin="round"/>
<path d="M387.706 301.258C387.706 301.258 409.239 264.965 419.322 306.297" stroke="#162250" stroke-width="13.4146" stroke-miterlimit="10" stroke-linecap="round" stroke-linejoin="round"/>
<path d="M375.348 496.428C375.348 496.428 402.578 414.933 455.939 458.381L412.783 495.13L375.348 496.428Z" fill="#02C49A"/>
<path d="M375.348 496.428C375.348 496.428 402.578 414.933 455.939 458.381" stroke="#162250" stroke-width="8.94291" stroke-miterlimit="10" stroke-linecap="round" stroke-linejoin="round"/>
<path d="M285.096 291.96C285.096 291.96 271.816 250.821 248.097 288.04" stroke="#162250" stroke-width="13.4146" stroke-miterlimit="10" stroke-linecap="round" stroke-linejoin="round"/>
<path d="M266.919 320.446C204.965 298.861 167.844 449.675 231.434 469.183C295.023 488.695 318.343 338.365 266.919 320.446Z" fill="white"/>
<path d="M234.423 373.394C232.374 368.566 255.167 361.219 267.77 357.567C266.181 338.459 259.398 324.197 245.728 323.61C202.229 321.748 180.263 447.593 217.75 459.598C240.713 466.955 259.553 429.825 265.875 392.516C255.148 387.472 236.421 378.104 234.423 373.394Z" fill="#162250"/>
<path d="M266.919 320.446C204.965 298.861 167.844 449.675 231.434 469.183C295.023 488.695 318.343 338.365 266.919 320.446Z" stroke="#162250" stroke-width="8.94291" stroke-miterlimit="10" stroke-linecap="round" stroke-linejoin="round"/>
<path d="M240.61 480.535C240.61 480.535 240.379 394.923 175.835 420.682L205.36 468.332L240.61 480.535Z" fill="#02C49A"/>
<path d="M240.61 480.535C240.61 480.535 240.379 394.923 175.835 420.682" stroke="#162250" stroke-width="8.94291" stroke-miterlimit="10" stroke-linecap="round" stroke-linejoin="round"/>
<path d="M309.492 442.653C309.492 442.653 303.174 491.262 313.816 491.844C324.459 492.427 326.931 442.215 326.931 442.215" stroke="#162250" stroke-width="8.94291" stroke-miterlimit="10" stroke-linecap="round" stroke-linejoin="round"/>
</svg>
