<svg width="220" height="56" viewBox="0 0 220 56" fill="none" xmlns="http://www.w3.org/2000/svg">
<path d="M34.295 55.3882C27.3376 55.3882 21.2776 54.2696 16.115 52.0325C10.9769 49.7707 7.00652 46.5748 4.20392 42.4446C1.40132 38.2899 1.99378e-05 33.3853 1.99378e-05 27.731V27.6572C1.99378e-05 22.0029 1.40132 17.1106 4.20392 12.9805C7.0311 8.82573 11.0137 5.62978 16.1518 3.39262C21.2899 1.13087 27.3376 -1.05053e-06 34.295 -1.05053e-06C41.2523 -1.05053e-06 47.3 1.13087 52.4381 3.39262C57.5762 5.62978 61.5589 8.82573 64.386 12.9805C67.2132 17.1106 68.6268 22.0029 68.6268 27.6572V27.731C68.6268 33.3853 67.2132 38.2899 64.386 42.4446C61.5589 46.5748 57.5762 49.7707 52.4381 52.0325C47.3246 54.2696 41.2769 55.3882 34.295 55.3882ZM34.295 41.4858C37.4663 41.4858 40.2075 40.9327 42.5184 39.8264C44.8293 38.7201 46.6117 37.1344 47.8655 35.0694C49.1438 33.0043 49.783 30.5582 49.783 27.731V27.6572C49.783 24.83 49.1438 22.3962 47.8655 20.3557C46.6117 18.2906 44.817 16.705 42.4815 15.5987C40.1706 14.4924 37.4418 13.9392 34.295 13.9392C31.1236 13.9392 28.3825 14.4924 26.0716 15.5987C23.7606 16.705 21.966 18.2906 20.6876 20.3557C19.4338 22.3962 18.8069 24.83 18.8069 27.6572V27.731C18.8069 30.5582 19.4338 33.0043 20.6876 35.0694C21.966 37.1344 23.7606 38.7201 26.0716 39.8264C28.3825 40.9327 31.1236 41.4858 34.295 41.4858ZM61.3755 54.3188V1.10629H96.1129C101.349 1.10629 105.713 1.80694 109.204 3.20824C112.72 4.58495 115.35 6.61315 117.096 9.29283C118.866 11.9479 119.751 15.1684 119.751 18.9544V19.0282C119.751 22.7896 118.804 26.0224 116.911 28.7266C115.043 31.4309 112.351 33.4099 108.835 34.6637L121.963 54.3188H101.276L90.8765 37.7245C90.7536 37.7245 90.6184 37.7245 90.4709 37.7245C90.3234 37.7245 90.1881 37.7245 90.0652 37.7245H79.8874V54.3188H61.3755ZM79.8874 25.924H94.2691C96.4325 25.924 98.1288 25.3832 99.358 24.3015C100.612 23.2198 101.239 21.7324 101.239 19.8394V19.7657C101.239 17.9219 100.612 16.4591 99.358 15.3774C98.1043 14.2711 96.4079 13.718 94.2691 13.718H79.8874V25.924ZM130.864 54.3188V14.7874H111.245V1.10629H168.957V14.7874H149.339V54.3188H130.864ZM149.241 54.3188L172.252 1.10629H190.395V14.6399H184.2L168.749 54.3188H149.241ZM162.849 44.0672L167.606 32.3036H200.463L205.183 44.0672H162.849ZM199.946 54.3188L184.495 14.6399V1.10629H196.406L219.417 54.3188H199.946Z" fill="white"/>
</svg>
