<svg width="883" height="920" viewBox="0 0 883 920" fill="none" xmlns="http://www.w3.org/2000/svg">
<path d="M100.399 648.141C100.399 648.141 116.682 652.971 121.226 635.361C125.77 617.755 102.816 591.483 84.4531 589.87C66.0863 588.262 69.3041 609.751 69.3041 609.751C69.3041 609.751 53.0202 604.92 37.9707 612.303C22.9173 619.687 -3.02393 647.424 0.289407 656.416C3.60275 665.408 14.7733 665.791 14.7733 665.791C14.7733 665.791 7.24662 698.593 28.3532 706.546C49.4638 714.499 66.9266 657.551 73.41 665.173C79.8933 672.796 58.2171 692.07 74.5011 696.897C90.785 701.724 96.8024 676.635 96.8024 676.635C96.8024 676.635 111 665.273 100.399 648.141Z" fill="white"/>
<path d="M75.174 657.24C75.174 657.24 48.8266 692.17 43.2234 702.381C37.3056 713.165 20.8663 705.654 25.92 695.694C30.9736 685.734 45.9274 664.775 45.9274 664.775" stroke="#162250" stroke-width="5.68246" stroke-miterlimit="10" stroke-linejoin="round"/>
<path d="M26.5731 652.967C26.5731 652.967 -4.82806 690.414 23.646 700.605" stroke="#162250" stroke-width="5.68246" stroke-miterlimit="10" stroke-linejoin="round"/>
<path d="M270.916 539.641C270.916 539.641 153.85 574.972 105.982 625.855C105.982 625.855 91.0318 616.831 90.9243 608.966C90.8167 601.101 188.357 520.649 263.509 517.957L270.916 539.641Z" fill="#162250"/>
<path d="M96.9137 646.245C96.9137 646.245 113.468 653.437 122.656 639.244C131.843 625.047 108.705 592.535 88.0728 588.277C67.44 584.02 71.1835 614.378 71.1835 614.378" stroke="#162250" stroke-width="7.57648" stroke-miterlimit="10"/>
<path d="M781.816 586.071C781.816 586.071 766.237 592.833 759.598 575.904C752.959 558.975 772.569 530.123 790.605 526.304C808.641 522.484 808.044 544.204 808.044 544.204C808.044 544.204 823.623 537.442 839.457 542.954C855.291 548.461 884.394 572.858 882.192 582.188C879.989 591.515 868.946 593.243 868.946 593.243C868.946 593.243 880.384 624.895 860.392 635.341C840.397 645.787 816.18 591.368 810.664 599.719C805.148 608.07 828.999 624.581 813.42 631.343C797.841 638.105 788.833 613.924 788.833 613.924C788.833 613.924 773.361 604.362 781.816 586.071Z" fill="white"/>
<path d="M807.956 592.057C807.956 592.057 838.334 623.541 845.128 633.004C852.304 642.991 867.716 633.549 861.495 624.274C855.275 614.999 837.896 596.003 837.896 596.003" stroke="#162250" stroke-width="5.68246" stroke-miterlimit="10" stroke-linejoin="round"/>
<path d="M855.681 581.938C855.681 581.938 891.379 615.314 864.342 628.874" stroke="#162250" stroke-width="5.68246" stroke-miterlimit="10" stroke-linejoin="round"/>
<path d="M599.426 498.981C599.426 498.981 719.905 519.904 773.576 564.622C773.576 564.622 787.323 553.858 786.479 546.036C785.635 538.215 679.082 470.144 604.158 476.56L599.426 498.981Z" fill="#162250"/>
<path d="M785.045 583.769C785.045 583.769 769.478 592.913 758.646 579.93C747.81 566.952 766.846 531.879 786.814 525.157C806.781 518.434 806.737 549.023 806.737 549.023" stroke="#162250" stroke-width="7.57648" stroke-miterlimit="10"/>
<path d="M474.778 574.53C474.778 574.53 554.215 634.079 582.545 665.129C610.876 696.18 639.167 762.168 639.167 762.168L614.695 779.503C614.695 779.503 574.337 700.593 563.772 691.075C553.211 681.557 451.051 603.685 451.051 603.685L474.778 574.53Z" fill="#162250"/>
<path d="M656.53 748.847C661.998 764.657 660.899 767.083 660.899 767.083C660.899 767.083 707.441 735.451 715.202 768.305C720.642 791.331 638.071 848.156 619.896 834.934C601.732 821.721 614.074 791.351 614.074 791.351C614.074 791.351 588.439 785.549 593.222 773.295C598.009 761.049 650.361 731.006 656.53 748.847Z" fill="white"/>
<path d="M714.222 766.497C714.222 766.497 656.84 826.281 617.343 833.258" stroke="#162250" stroke-width="5.68246" stroke-miterlimit="10" stroke-linejoin="round"/>
<path d="M614.074 791.355C614.074 791.355 600.287 840.621 629.569 838.793C658.852 836.961 730.69 780.682 711.017 758.719C691.34 736.757 645.586 783.884 645.586 783.884" stroke="#162250" stroke-width="5.68246" stroke-miterlimit="10" stroke-linejoin="round"/>
<path d="M242.549 799.22C228.579 789.137 223.876 780.025 223.876 780.025C223.876 780.025 196.302 836.109 177.338 811.725C162.42 792.542 182.889 700.724 216.337 705.276C239.22 708.39 248.762 733.499 248.762 733.499C248.762 733.499 276.28 726.394 279.533 739.277C282.791 752.164 258.311 810.602 242.549 799.22Z" fill="white"/>
<path d="M220.941 705.614C220.941 705.614 182.033 726.335 179.902 814.281" stroke="#162250" stroke-width="5.68246" stroke-miterlimit="10" stroke-linejoin="round"/>
<path d="M207.432 801.924C207.432 801.924 193.339 827.762 178.66 813.668C163.977 799.575 173.964 760.985 179.046 746.828C185.023 730.178 210.212 669.128 245.647 731.46" stroke="#162250" stroke-width="5.68246" stroke-miterlimit="10" stroke-linejoin="round"/>
<path d="M254.747 745.781C256.253 746.493 320.676 766.449 338.118 755.016C369.758 734.276 379.065 609.822 379.065 609.822L418.148 619.742C418.148 619.742 407.914 762.232 348.353 783.876C315.037 795.983 269.359 782.9 242.876 772.319L254.747 745.781Z" fill="#162250"/>
<path d="M292.668 183.058C292.668 183.058 262.203 202.636 218.564 187.283C174.925 171.931 170.827 90.9815 166.932 85.438C163.041 79.8985 157.319 59.9468 157.319 59.9468C157.319 59.9468 195.745 51.9223 227.596 63.0969C259.447 74.2675 316.22 151.526 292.668 183.058Z" fill="#F0F3BE"/>
<path d="M322.747 159.311C322.747 159.311 287.101 126.923 291.282 85.446C295.464 43.9695 339.827 29.39 343.145 25.4435C346.462 21.4969 371.997 0 371.997 0C371.997 0 393.343 18.3708 394.43 59.4769C395.517 100.591 336.777 155.098 322.747 159.311Z" fill="#F0F3BE"/>
<path d="M371.945 232.416C371.945 232.416 342.177 215.606 354.769 170.956C367.365 126.305 435.448 112.486 441.207 105.461C446.969 98.4365 472.707 82.2561 472.707 82.2561C472.707 82.2561 497.334 123.653 481.038 166.464C464.746 209.274 371.945 232.416 371.945 232.416Z" fill="#F0F3BE"/>
<path d="M384.51 350.374C384.51 350.374 325.001 169.868 223.526 116.767C223.526 116.767 326.14 147.316 393.908 349.713L384.51 350.374Z" fill="#162250"/>
<path d="M379.476 308.165C379.476 308.165 345.271 196.567 450.287 133.358C450.287 133.358 341.11 171.589 374.844 304.601L379.476 308.165Z" fill="#162250"/>
<path d="M337.024 237.442C337.024 237.442 282.632 124.609 368.811 62.0137C368.811 62.0137 293.002 122.47 346.498 248.62L337.024 237.442Z" fill="#162250"/>
<path d="M503.714 347.889C503.714 347.889 645.806 250.99 644.878 239.349C643.95 227.709 639.971 121.518 657.534 120.698C675.096 119.878 815.857 199.485 806.176 217.769C796.499 236.052 681.786 264.191 681.261 267.827C680.739 271.463 619.167 502.553 610.749 501.716C602.338 500.876 503.714 347.889 503.714 347.889Z" fill="#EAF3CF"/>
<path d="M796.877 224.499L647.219 138.615" stroke="#162250" stroke-width="7.57648" stroke-miterlimit="10" stroke-linecap="round" stroke-linejoin="round"/>
<path d="M292.007 396.514C292.007 396.514 182.726 378.434 138.82 454.39C94.9145 530.346 161.157 620.535 278.797 600.71L284.743 564.152C284.743 564.152 201.475 581.085 184.399 511.135C164.355 429.014 251.984 428.158 296.535 449.659L292.007 396.514Z" fill="#EAF3CF"/>
<path d="M244.704 685.758C276.431 696.981 661.906 631.427 665.044 594.092C668.182 556.757 535.732 262.582 511.217 259.95C486.701 257.318 283.938 301.104 267.626 312.541C251.314 323.983 212.976 674.536 244.704 685.758Z" fill="white"/>
<path d="M528.44 280.328L258.901 338.435" stroke="#162250" stroke-width="7.57648" stroke-miterlimit="10" stroke-linecap="round" stroke-linejoin="round"/>
<path d="M563.84 342.17C563.84 342.17 693.697 579.799 658.692 602.2C623.687 624.605 482.221 654.76 482.221 654.76" stroke="#162250" stroke-width="7.57648" stroke-miterlimit="10"/>
<path d="M370.615 678.22C370.615 678.22 260.299 698 244.708 685.758C216.799 663.851 248.798 405.179 248.798 405.179" stroke="#162250" stroke-width="7.57648" stroke-miterlimit="10"/>
<path d="M333.73 413.567C321.38 444.585 335.343 501.231 369.05 500.358C404.704 499.435 402.45 437.564 382.295 408.569" stroke="#162250" stroke-width="7.57648" stroke-miterlimit="10" stroke-linecap="round" stroke-linejoin="round"/>
<path d="M365.652 373.221C365.652 373.221 350.133 338.686 344.92 377.104" stroke="#162250" stroke-width="11.3649" stroke-miterlimit="10" stroke-linecap="round" stroke-linejoin="round"/>
<path d="M456.725 347.184C456.725 347.184 436.017 314.827 432.134 353.333" stroke="#162250" stroke-width="11.3649" stroke-miterlimit="10" stroke-linecap="round" stroke-linejoin="round"/>
<path d="M383.008 502.812C383.008 502.812 361.324 446.784 325.474 478.874L356.138 521.549L383.008 502.812Z" fill="white"/>
<path d="M342.343 484.242C311.675 491.737 322.419 536.212 354.609 526.495C382.569 518.056 371.502 477.114 342.343 484.242Z" fill="#028090"/>
<path d="M383.008 502.812C383.008 502.812 361.324 446.784 325.474 478.874" stroke="#162250" stroke-width="7.57648" stroke-miterlimit="10" stroke-linecap="round" stroke-linejoin="round"/>
<path d="M478.975 385.694C501.157 410.568 508.162 467.336 476.757 478.603C443.169 490.653 422.871 432.096 431.198 397.772" stroke="#162250" stroke-width="7.57648" stroke-miterlimit="10" stroke-linecap="round" stroke-linejoin="round"/>
<path d="M470.724 486.83C470.724 486.83 468.083 427.027 514.008 442.909L494.945 477.153L470.724 486.83Z" fill="white"/>
<path d="M499.767 454.258C469.099 461.753 479.843 506.229 512.033 496.512C539.989 488.069 528.926 447.13 499.767 454.258Z" fill="#028090"/>
<path d="M470.724 486.83C470.724 486.83 468.083 427.027 514.008 442.909" stroke="#162250" stroke-width="7.57648" stroke-miterlimit="10" stroke-linecap="round" stroke-linejoin="round"/>
<path d="M424.154 461.04C424.154 461.04 432.091 497.551 425.213 500.725C418.336 503.899 410.395 465.27 410.395 465.27" stroke="#162250" stroke-width="5.68246" stroke-miterlimit="10" stroke-linecap="round" stroke-linejoin="round"/>
<path d="M639.557 887.681C640.298 845.699 214.326 844.305 222.379 888.027C230.427 931.75 638.816 929.663 639.557 887.681Z" fill="#009B98"/>
</svg>
