<svg width="821" height="890" viewBox="0 0 821 890" fill="none" xmlns="http://www.w3.org/2000/svg">
<path d="M467.449 746.754C471.824 758.229 481.943 763.3 481.943 763.3C481.943 763.3 442.104 797.344 450.26 804.301C458.422 811.258 553.857 787.851 555.078 777.664C556.302 767.475 528.988 747.885 528.988 747.885C528.988 747.885 540.668 740.404 529.879 731.624C519.09 722.844 463.071 735.281 467.449 746.754Z" fill="white"/>
<path d="M519.889 756.075C519.889 756.075 539.062 745.066 533.032 735.595C527.002 726.124 513.692 729.688 513.692 729.688" stroke="#162250" stroke-width="6.24818" stroke-miterlimit="10"/>
<path d="M496.014 761.175C496.014 761.175 466.561 760.885 467.448 746.758C468.08 736.692 480.543 735.161 480.543 735.161" stroke="#162250" stroke-width="6.24818" stroke-miterlimit="10"/>
<path d="M420.572 508.852C420.572 508.852 472.025 711.309 488.681 745.812C488.681 745.812 514.309 747.38 508.911 739.157C503.513 730.935 447.148 499.119 447.148 499.119L420.572 508.852Z" fill="#162250"/>
<path d="M649.86 643.701C654.981 654.862 652.925 667.063 652.925 667.063C652.925 667.063 709.521 665.1 708.767 675.796C708.014 686.493 618.637 734.145 610.51 727.881C602.384 721.614 609.9 691.859 609.9 691.859C609.9 691.859 594.022 691.49 595.318 677.639C596.615 663.789 644.742 632.538 649.86 643.701Z" fill="white"/>
<path d="M641.858 678.394C641.858 678.394 664.358 650.114 650.04 644.247C635.721 638.38 624.711 648.233 624.711 648.233" stroke="#162250" stroke-width="6.24818" stroke-miterlimit="10"/>
<path d="M624.145 688.531C624.145 688.531 603.532 694.458 595.521 684.977C587.51 675.497 603.3 664.127 603.3 664.127" stroke="#162250" stroke-width="6.24818" stroke-miterlimit="10"/>
<path d="M488.664 444.975C488.664 444.975 631.246 634.523 636.159 669.346C636.159 669.346 617.968 688.945 613.603 680.127C609.24 671.313 473.208 460.312 473.208 460.312L488.664 444.975Z" fill="#162250"/>
<path d="M343.953 349.508C343.953 349.508 308.097 275.936 242.793 243.185C242.793 243.185 297.688 245.493 353.386 345.496" fill="#162250"/>
<path d="M286.131 239.811C273.042 205.325 340.779 138.775 347.496 142.828C354.214 146.883 392.881 177.405 400.588 211.874C408.295 246.345 354.087 286.024 343.591 286.531C333.095 287.041 299.219 274.296 286.131 239.811Z" fill="#009B98"/>
<path d="M313.625 319.548C313.625 319.548 327.27 348.383 289.807 367.656C252.343 386.929 181.636 360.892 185.158 353.097C188.68 345.301 207.414 286.953 252.907 282.507C298.401 278.06 313.625 319.548 313.625 319.548Z" fill="#009B98"/>
<path d="M269.156 256.249C269.156 256.249 250.225 279.808 212.281 279.164C174.335 278.518 142.304 184.233 153.358 178.076C164.409 171.916 195.716 140.248 235.487 162.159C275.255 184.071 269.156 256.249 269.156 256.249Z" fill="#009B98"/>
<path d="M199.588 349.971C199.588 349.971 287.069 292.931 327.782 315.5" stroke="#162250" stroke-width="6.24818" stroke-miterlimit="10" stroke-linecap="round" stroke-linejoin="round"/>
<path d="M347.381 151.81C347.381 151.81 325.821 291.604 347.898 335.279" stroke="#162250" stroke-width="6.24818" stroke-miterlimit="10" stroke-linecap="round" stroke-linejoin="round"/>
<path d="M159.277 182.928C159.277 182.928 229.999 213.821 271.767 259.709" stroke="#162250" stroke-width="6.24818" stroke-miterlimit="10" stroke-linecap="round" stroke-linejoin="round"/>
<path d="M258.943 498.715C258.943 498.715 401.424 628.243 412.024 625.737C422.622 623.229 605.199 505.415 602.082 491.121C598.965 476.827 520.231 312.486 520.231 312.486L258.943 498.715Z" fill="#F0F3BE"/>
<path d="M572.635 420.706C560.455 395.104 549.125 372.488 549.125 372.488" stroke="#162250" stroke-width="6.24818" stroke-miterlimit="10"/>
<path d="M344.986 572.57C344.986 572.57 400.76 629.941 412.021 625.739C423.282 621.537 602.434 504.767 602.079 491.123C601.931 485.341 592.394 463.15 581.456 439.495" stroke="#162250" stroke-width="6.24818" stroke-miterlimit="10"/>
<path d="M261.174 526.065C261.174 526.065 187.057 468.041 191.689 461.579C196.319 455.119 505.959 232.821 511.669 242.134C517.383 251.445 547.582 310.255 540.052 319.85C532.519 329.446 261.174 526.065 261.174 526.065Z" fill="#02C49A"/>
<path d="M440.582 398.283C468.127 369.548 529.738 440.846 500.739 468.909C471.738 496.97 417.72 422.132 440.582 398.283Z" fill="white"/>
<path d="M457.369 429.311C454.335 428.147 460.431 414.862 463.987 407.696C454.663 400.192 445.391 397.078 439.469 402.9C420.63 421.429 468.61 485.266 489.563 473.768C502.397 466.724 493.353 442.4 479.05 423.56C472.329 426.15 460.334 430.448 457.369 429.311Z" fill="#162250"/>
<path d="M440.582 398.283C468.127 369.548 529.738 440.846 500.739 468.909C471.738 496.97 417.72 422.132 440.582 398.283Z" stroke="#162250" stroke-width="6.24818" stroke-miterlimit="10" stroke-linecap="round" stroke-linejoin="round"/>
<path d="M424.06 389.546C424.06 389.546 412.101 358.944 439.064 379.064" stroke="#162250" stroke-width="9.37243" stroke-miterlimit="10" stroke-linecap="round" stroke-linejoin="round"/>
<path d="M354.899 431.155C354.899 431.155 342.94 400.554 369.903 420.673" stroke="#162250" stroke-width="9.37243" stroke-miterlimit="10" stroke-linecap="round" stroke-linejoin="round"/>
<path d="M493.774 479.043C493.774 479.043 472.249 431.567 513.91 428.861L521.709 473.786L493.774 479.043Z" fill="#009B98"/>
<path d="M493.774 479.043C493.774 479.043 472.249 431.567 513.91 428.861Z" fill="#009B98"/>
<path d="M493.774 479.043C493.774 479.043 472.249 431.567 513.91 428.861" stroke="#162250" stroke-width="6.24818" stroke-miterlimit="10" stroke-linecap="round" stroke-linejoin="round"/>
<path d="M376.203 441.611C339.744 457.581 385.482 539.969 421.811 522.399C458.139 504.828 406.465 428.355 376.203 441.611Z" fill="white"/>
<path d="M383.603 478.566C380.701 477.265 387.803 464.593 391.901 457.765C383.307 449.927 374.406 446.382 368.083 451.763C347.97 468.887 390.143 533.915 411.767 523.783C425.014 517.575 418.069 493.291 405.481 474.091C398.632 476.273 386.438 479.837 383.603 478.566Z" fill="#162250"/>
<path d="M376.203 441.611C339.744 457.581 385.482 539.969 421.811 522.399C458.139 504.828 406.465 428.355 376.203 441.611Z" stroke="#162250" stroke-width="6.24818" stroke-miterlimit="10" stroke-linecap="round" stroke-linejoin="round"/>
<path d="M430.574 523.66C430.574 523.66 395.138 485.683 377.068 523.777L409.863 532.783L430.574 523.66Z" fill="#009B98"/>
<path d="M430.574 523.66C430.574 523.66 395.138 485.683 377.068 523.777" stroke="#162250" stroke-width="6.24818" stroke-miterlimit="10" stroke-linecap="round" stroke-linejoin="round"/>
<path d="M441.874 507.073C445.112 495.297 458.002 507.386 467.439 499.199C472.409 494.886 466.129 483.895 476.276 481.123C489.167 477.606 495.957 502.471 474.966 516.43C453.972 530.39 438.293 520.101 441.874 507.073Z" fill="white"/>
<path d="M441.874 507.073C445.112 495.297 458.002 507.386 467.439 499.199C472.409 494.886 466.129 483.895 476.276 481.123C489.167 477.606 495.957 502.471 474.966 516.43C453.972 530.39 438.293 520.101 441.874 507.073Z" stroke="#162250" stroke-width="4.68622" stroke-miterlimit="10" stroke-linecap="round" stroke-linejoin="round"/>
<path d="M452.036 502.887L455.42 520.817" stroke="#162250" stroke-width="3.12425" stroke-miterlimit="10" stroke-linecap="round" stroke-linejoin="round"/>
<path d="M464.638 501.724L473.874 514.588" stroke="#162250" stroke-width="3.12425" stroke-miterlimit="10" stroke-linecap="round" stroke-linejoin="round"/>
<path d="M471.819 491.439L486.916 496.071" stroke="#162250" stroke-width="3.12425" stroke-miterlimit="10" stroke-linecap="round" stroke-linejoin="round"/>
<path d="M532.101 361.165C532.101 361.165 604.64 302.374 657.066 354.579C709.492 406.784 661.765 439.581 661.765 439.581L641.467 432.41C641.467 432.41 669.786 392.099 630.316 370.675C590.848 349.249 547.707 399.992 547.707 399.992L532.101 361.165Z" fill="#162250"/>
<path d="M632.093 410.274C626.261 413.158 624.234 421.551 624.234 421.551C624.234 421.551 611.505 411.636 599.145 413.083C586.787 414.529 578.663 428.772 578.663 428.772C578.663 428.772 575.536 436.088 579.953 441.986C576.73 444.572 574.316 447.665 574.275 451.187C574.147 462.023 582.277 466.84 582.277 466.84C582.277 466.84 576.507 473.439 580.922 478.318C585.337 483.197 593.698 483.364 593.698 483.364C593.698 483.364 587.6 489.039 595.437 494.79C603.273 500.538 626.238 503.866 643.579 485.93C660.921 467.993 653.736 445.824 653.736 445.824C653.736 445.824 665.567 449.957 665.087 439.75C664.611 429.536 637.925 407.391 632.093 410.274Z" fill="white"/>
<path d="M579.112 440.366C579.112 440.366 575.279 435.412 578.666 428.77C582.05 422.131 595.032 414.161 595.032 414.161" stroke="#162250" stroke-width="4.68622" stroke-miterlimit="10"/>
<path d="M594.88 434.19C594.88 434.19 572.759 439.379 574.275 451.187C575.79 462.994 582.277 466.84 582.277 466.84C582.277 466.84 576.793 474.484 580.922 478.318C585.054 482.15 593.698 483.364 593.698 483.364C593.698 483.364 592.29 490.391 595.438 494.79C598.585 499.189 613.853 506.268 635.781 492.375" stroke="#162250" stroke-width="4.68622" stroke-miterlimit="10"/>
<path d="M632.714 430.092C632.714 430.092 619.938 424.48 627.765 414.633C635.594 404.788 649.236 419.792 649.236 419.792" stroke="#162250" stroke-width="6.24818" stroke-miterlimit="10"/>
<path d="M649.907 443.928C649.907 443.928 661.767 451.972 665.48 445.519C669.193 439.066 657.001 426.5 657.001 426.5" stroke="#162250" stroke-width="6.24818" stroke-miterlimit="10"/>
<path d="M352.533 581.237C347.736 603.337 335.81 639.054 308.531 641.976C268.802 646.234 257.021 605.698 257.021 605.698L231.673 616.372C231.673 616.372 263.866 680.866 317.92 663.686C352.332 652.75 368.19 621.455 375.181 600.141C368.122 594.381 360.453 587.968 352.533 581.237Z" fill="#162250"/>
<path d="M214.809 628.751C204.806 615.69 218.627 606.083 218.627 606.083C218.627 606.083 200.047 593.649 193.212 570.874C193.212 570.874 163.691 532.517 175.905 528.607C188.12 524.698 199.261 541.557 199.261 541.557C199.261 541.557 189.346 506.078 198.745 504.959C208.146 503.843 212.231 512.594 212.231 512.594C212.231 512.594 206.558 488.013 219.24 490.532C231.924 493.053 237.886 527.527 237.886 527.527C237.886 527.527 237.125 511.205 253.961 505.667C270.797 500.129 283.96 523.824 275.029 531.371C266.098 538.918 258.003 525.628 258.003 525.628C258.003 525.628 243.079 542.387 254.769 552.155C268.863 563.93 258.056 529.727 273.038 534.237C288.02 538.746 280.131 556.892 280.131 556.892C280.131 556.892 293.992 568.564 264.054 595.318C264.054 595.318 287.061 598.93 277.103 616.032C267.148 633.141 224.814 641.814 214.809 628.751Z" fill="white"/>
<path d="M240.635 606.158C240.635 606.158 210.722 623.986 193.215 570.872C193.215 570.872 170.866 536.774 171.865 530.346C173.215 521.648 194.016 532.961 204.47 551.118" stroke="#162250" stroke-width="4.68622" stroke-miterlimit="10"/>
<path d="M223.275 542.338C223.275 542.338 212.935 507.636 201.257 505.315C186.717 502.422 201.32 527.933 200.034 546.55" stroke="#162250" stroke-width="4.68622" stroke-miterlimit="10"/>
<path d="M261.264 596.981C261.264 596.981 291.48 576.894 280.133 556.895C280.133 556.895 284.275 535.238 272.85 532.763C261.619 530.333 267.505 553.794 259.245 556.643" stroke="#162250" stroke-width="4.68622" stroke-miterlimit="10"/>
</svg>
